<svg xmlns="http://www.w3.org/2000/svg" width="36" height="40">
    <defs>
        <filter id="a">
            <feFlood flood-color="#212121" flood-opacity="1" result="floodOut"/>
            <feComposite in="floodOut" in2="SourceGraphic" operator="atop" result="compOut"/>
            <feBlend in="compOut" in2="SourceGraphic"/>
        </filter>
    </defs>
    <path fill="#710C13" fill-rule="evenodd" d="M25.173 12.642V1.912h3.032V-.002H7.766v1.914h3.033v10.729L1.325 28.974a7.246 7.246 0 0 0 0 7.348c1.335 2.302 3.725 3.675 6.394 3.675h20.533c2.669 0 5.059-1.373 6.394-3.675a7.246 7.246 0 0 0 0-7.348l-9.473-16.332zm-12.451.512V1.912H23.25v11.242l3.841 6.622H8.88l3.842-6.622zm20.259 22.212a5.408 5.408 0 0 1-4.729 2.718H7.719a5.407 5.407 0 0 1-4.728-2.718 5.358 5.358 0 0 1 0-5.435l2.253-3.884h5.98v-1.914H6.353l1.418-2.443h20.43l4.781 8.241a5.356 5.356 0 0 1-.001 5.435zm-21.757-2.224h5.383v1.913h-5.383v-1.913zm10.382-5.741h7.113v1.914h-7.113v-1.914z" filter="url(#a)"/>
</svg>
