<svg xmlns="http://www.w3.org/2000/svg" width="55" height="39">
    <defs>
        <filter id="a">
            <feFlood flood-color="#212121" flood-opacity="1" result="floodOut"/>
            <feComposite in="floodOut" in2="SourceGraphic" operator="atop" result="compOut"/>
            <feBlend in="compOut" in2="SourceGraphic"/>
        </filter>
    </defs>
    <path fill="#31A3DD" fill-rule="evenodd" d="M18.413 35.035h-3.818c-.781 0-1.479-.589-1.623-1.368l-.622-3.426a12.805 12.805 0 0 1-1.315-.563l-2.71 1.915c-.639.442-1.59.346-2.12-.205l-2.699-2.785c-.539-.552-.623-1.461-.193-2.112l1.876-2.83c-.222-.471-.417-.96-.584-1.463l-3.272-.633a1.7 1.7 0 0 1-1.342-1.649v-3.941c0-.79.576-1.498 1.339-1.649l3.278-.633c.163-.487.352-.96.565-1.416L3.272 9.411a1.723 1.723 0 0 1 .195-2.114L6.165 4.51c.532-.549 1.492-.644 2.119-.201l2.726 1.925c.43-.216.878-.408 1.339-.575l.622-3.422c.145-.783.842-1.372 1.623-1.372h3.818c.783 0 1.481.59 1.622 1.373l.614 3.376c.493.174.972.375 1.43.602l2.769-1.956c.618-.44 1.581-.349 2.115.199l2.701 2.79c.54.555.624 1.465.193 2.113l-1.912 2.887c.219.463.413.946.579 1.444l3.274.633a1.689 1.689 0 0 1 1.34 1.656v3.936c0 .787-.574 1.495-1.334 1.647l-3.277.634a13.054 13.054 0 0 1-.597 1.491l1.889 2.85c.427.65.343 1.558-.195 2.114l-2.698 2.785a1.646 1.646 0 0 1-1.183.494 1.616 1.616 0 0 1-.935-.293l-2.752-1.943c-.45.223-.92.42-1.405.589l-.613 3.378c-.146.783-.844 1.371-1.624 1.371zm-7.499-7.399l.476.265c.62.345 1.288.633 1.984.854l.499.158.805 4.441 3.661-.056.791-4.354.507-.154a10.803 10.803 0 0 0 2.067-.868l.476-.264 3.556 2.513 2.642-2.727-2.457-3.641.24-.455c.348-.663.637-1.385.859-2.146l.148-.509 4.3-.833-.066-3.884-4.237-.776-.149-.509a11.331 11.331 0 0 0-.84-2.101l-.239-.455L28.411 8.4l-2.634-2.67-3.578 2.527-.476-.266a10.69 10.69 0 0 0-2.088-.88l-.507-.154-.801-4.409-3.733.054-.723 4.387-.5.158c-.704.222-1.378.513-2.002.862l-.477.268-3.538-2.499-2.643 2.73 2.467 3.652-.236.454a11.547 11.547 0 0 0-.829 2.078l-.149.508-4.303.832.065 3.884 4.238.775.148.511c.215.743.499 1.455.845 2.118l.238.455-2.435 3.677 2.635 2.67 3.519-2.486zm5.652-2.052c-4.09 0-7.418-3.425-7.418-7.634 0-4.208 3.328-7.632 7.418-7.632 4.091 0 7.42 3.424 7.42 7.632 0 4.209-3.329 7.634-7.42 7.634zm0-13.529c-3.134 0-5.683 2.645-5.683 5.895 0 3.251 2.549 5.896 5.683 5.896s5.685-2.645 5.685-5.896c0-3.25-2.551-5.895-5.685-5.895zM42.65 38.854l-.33-.041-2.352-.609a1.39 1.39 0 0 1-1.017-1.432l.149-2.032a8.765 8.765 0 0 1-.456-.352l-1.801.682a1.393 1.393 0 0 1-1.659-.603l-1.219-2.149a1.418 1.418 0 0 1 .281-1.723l1.476-1.327a9.344 9.344 0 0 1-.086-.672l-1.75-.834a1.402 1.402 0 0 1-.733-1.594l.628-2.429a1.396 1.396 0 0 1 1.332-1.039l2.019.125a8.68 8.68 0 0 1 .381-.52l-.657-1.905a1.42 1.42 0 0 1 .591-1.644l2.107-1.286c.548-.335 1.33-.208 1.742.281l1.253 1.479c.193-.036.389-.066.586-.089l.853-1.846a1.404 1.404 0 0 1 1.256-.801l.33.042 2.351.608a1.391 1.391 0 0 1 1.017 1.436l-.148 1.997c.18.126.353.258.52.396l1.845-.698c.601-.225 1.338.041 1.658.602l1.219 2.15a1.419 1.419 0 0 1-.282 1.725l-1.507 1.355c.036.216.065.436.084.658l1.754.837c.585.278.899.967.731 1.599l-.627 2.424a1.4 1.4 0 0 1-1.334 1.04l-2.015-.125a8.44 8.44 0 0 1-.412.561l.652 1.892a1.42 1.42 0 0 1-.592 1.644l-2.105 1.286c-.539.331-1.328.21-1.743-.281l-1.266-1.496a8.068 8.068 0 0 1-.629.091l-.84 1.819a1.384 1.384 0 0 1-1.255.798zm-1.947-2.255l1.753.455 1.152-2.492.529-.022a6.571 6.571 0 0 0 1.347-.195l.526-.135 1.744 2.061 1.596-.974-.893-2.585.347-.381c.306-.336.587-.717.834-1.133l.271-.456 2.673.168.483-1.871-2.419-1.153-.016-.531a7.023 7.023 0 0 0-.175-1.367l-.117-.5 2.052-1.845-.923-1.627-2.54.96-.394-.376a6.482 6.482 0 0 0-1.093-.835l-.453-.276.202-2.74-1.752-.454-1.159 2.51-.523.027c-.447.023-.888.09-1.308.201l-.529.14-1.736-2.052-1.596.974.895 2.593-.342.381c-.297.33-.567.699-.804 1.099l-.272.455-2.676-.168-.483 1.868 2.421 1.154.014.532c.014.471.073.935.175 1.378l.117.5-2.02 1.815.923 1.627 2.498-.945.396.377c.309.296.658.567 1.035.803l.443.278-.203 2.757zm3.223-3.747c-.416 0-.832-.054-1.237-.159-2.688-.696-4.294-3.511-3.581-6.273.595-2.299 2.624-3.903 4.937-3.903a4.937 4.937 0 0 1 4.312 2.532 5.22 5.22 0 0 1 .506 3.901c-.594 2.298-2.625 3.902-4.937 3.902zm.119-8.597c-1.522 0-2.861 1.069-3.257 2.601-.474 1.834.574 3.699 2.336 4.156 1.75.449 3.593-.695 4.059-2.499a3.482 3.482 0 0 0-.335-2.607 3.218 3.218 0 0 0-2.803-1.651z" filter="url(#a)"/>
</svg>
