<svg xmlns="http://www.w3.org/2000/svg" width="36" height="29">
    <defs>
        <filter id="a">
            <feFlood flood-color="#1C91CD" flood-opacity="1" result="floodOut"/>
            <feComposite in="floodOut" in2="SourceGraphic" operator="atop" result="compOut"/>
            <feBlend in="compOut" in2="SourceGraphic"/>
        </filter>
    </defs>
    <path fill="#F2F5F7" fill-rule="evenodd" d="M35 28.824H1c-.553 0-1-.445-1-.995V1.807c0-.55.447-.994 1-.994.205 0 .396.061.555.167h15.112c.361 0 .694.194.871.506l1.401 2.477H35c.553 0 1 .445 1 .994v22.872c0 .55-.447.995-1 .995zM2 26.835h32V5.952H18.354c-.361 0-.694-.195-.872-.507l-1.4-2.477H2v23.867z" filter="url(#a)"/>
</svg>
