<svg xmlns="http://www.w3.org/2000/svg" width="40" height="40">
    <defs>
        <filter id="a">
            <feFlood flood-color="#212121" flood-opacity="1" result="floodOut"/>
            <feComposite in="floodOut" in2="SourceGraphic" operator="atop" result="compOut"/>
            <feBlend in="compOut" in2="SourceGraphic"/>
        </filter>
    </defs>
    <path fill="#F2F5F7" fill-rule="evenodd" d="M1.888-.001h36.22c.564 0 1.05.193 1.34.587.374.376.551.832.551 1.302v26.961c0 .558-.177 1.039-.551 1.319-.29.375-.776.559-1.34.559h-5.582v9.272l-8.987-9.272H1.888c-.562 0-1.026-.184-1.326-.559-.376-.28-.562-.761-.562-1.319V1.888C0 1.418.186.962.562.586c.3-.394.764-.587 1.326-.587zm8.148 11.738c-.493 0-.768-.372-.768-.763 0-.476.275-.752.768-.752h19.953c.372 0 .747.276.747.752 0 .391-.375.763-.747.763H10.036zm0 4.071c-.493 0-.768-.399-.768-.768 0-.371.275-.771.768-.771h19.953c.372 0 .747.4.747.771 0 .369-.375.768-.747.768H10.036zm0 4.05c-.493 0-.768-.278-.768-.747 0-.391.275-.667.768-.667h19.953c.372 0 .747.276.747.667a.736.736 0 0 1-.747.747H10.036zM38.108 1.519H1.888c-.18 0-.268 0-.369.101 0 .084-.1.174-.1.268v26.961c0 .088.1.177.1.268.101.101.189.195.369.195h21.956l.463.205 6.705 6.896v-7.101h7.096c.1 0 .288-.094.288-.195.093-.091.182-.18.182-.268V1.888c0-.094-.089-.184-.182-.268 0-.101-.188-.101-.288-.101z" filter="url(#a)"/>
</svg>
