<svg xmlns="http://www.w3.org/2000/svg" width="169" height="59">
    <defs>
        <filter id="a">
            <feFlood flood-color="#212121" flood-opacity="1" result="floodOut"/>
            <feComposite in="floodOut" in2="SourceGraphic" operator="atop" result="compOut"/>
            <feBlend in="compOut" in2="SourceGraphic"/>
        </filter>
    </defs>
    <path fill="#FAFBFB" fill-rule="evenodd" d="M167.859 23.9a12.965 12.965 0 0 1-3.054 3.925c-1.276 1.118-2.743 2.019-4.399 2.706a16.21 16.21 0 0 1-5.174 1.205 52.44 52.44 0 0 0-.102.956 9.152 9.152 0 0 0-.044.867c0 .961.098 1.765.293 2.411.194.648.458 1.162.789 1.544.331.382.721.652 1.169.809.448.157.935.235 1.461.235.585 0 1.194-.088 1.827-.264a11.495 11.495 0 0 0 1.871-.706 15.639 15.639 0 0 0 1.797-1.015 12.046 12.046 0 0 0 1.579-1.22c-.312 1.745-.799 3.185-1.462 4.322-.662 1.138-1.451 2.049-2.367 2.735a8.362 8.362 0 0 1-3.04 1.441c-1.111.274-2.27.412-3.478.412-1.403 0-2.675-.182-3.815-.544-1.139-.363-2.114-.926-2.922-1.691-.809-.765-1.437-1.75-1.886-2.955l-.013-.045-.001.001c-.965 1.47-1.939 2.592-2.923 3.366-.984.775-1.949 1.28-2.894 1.515-.945.235-1.817.353-2.616.353-1.324 0-2.435-.192-3.332-.574-.896-.382-1.617-.891-2.162-1.529a5.898 5.898 0 0 1-1.184-2.176 8.698 8.698 0 0 1-.366-2.514c0-1.019.142-2.21.424-3.572.283-1.363.59-2.76.921-4.191.331-1.431.638-2.813.921-4.146.282-1.333.423-2.48.423-3.44 0-2.059-.721-3.088-2.162-3.088-.546 0-1.053.147-1.521.441a5.045 5.045 0 0 0-1.285 1.191c-.39.5-.741 1.088-1.053 1.765a17.205 17.205 0 0 0-.818 2.161l-4.063 19.319h-8.622l.743-3.526c-.75.822-1.519 1.488-2.307 1.997-.789.51-1.554.901-2.294 1.176-.741.274-1.447.46-2.119.559-.673.098-1.272.147-1.798.147a7.533 7.533 0 0 1-2.514-.412 5.233 5.233 0 0 1-2.031-1.294c-.575-.588-1.028-1.333-1.359-2.235a7.633 7.633 0 0 1-.366-1.456 14.99 14.99 0 0 1-1.198 1.515c-.75.823-1.52 1.49-2.309 2-.789.51-1.554.901-2.294 1.176-.741.274-1.447.46-2.119.559-.673.098-1.272.147-1.798.147a7.533 7.533 0 0 1-2.514-.412 5.233 5.233 0 0 1-2.031-1.294c-.575-.588-1.028-1.333-1.359-2.235a7.453 7.453 0 0 1-.318-1.219c-.635.895-1.298 1.661-1.991 2.293-.935.852-1.9 1.504-2.894 1.955-.993.451-1.958.794-2.893 1.029l-.906 4.352c-.429 2.157-1.048 3.901-1.856 5.234-.809 1.333-1.71 2.372-2.704 3.117-.994.745-2.031 1.245-3.113 1.5a13.556 13.556 0 0 1-3.113.382 8.872 8.872 0 0 1-2.586-.367 6.32 6.32 0 0 1-2.119-1.088 5.221 5.221 0 0 1-1.447-1.824c-.361-.735-.541-1.592-.541-2.572 0-1.255.297-2.362.892-3.323a9.32 9.32 0 0 1 2.294-2.514 15.232 15.232 0 0 1 3.142-1.838 32.857 32.857 0 0 1 3.434-1.294l.731-3.234c-.643.705-1.286 1.279-1.929 1.72a9.272 9.272 0 0 1-1.871 1.014 8.416 8.416 0 0 1-1.753.485c-.565.089-1.111.133-1.637.133a7.528 7.528 0 0 1-2.514-.412 5.233 5.233 0 0 1-2.031-1.294c-.575-.588-1.028-1.333-1.359-2.235a7.386 7.386 0 0 1-.305-1.152c-.995 1.46-1.984 2.566-2.969 3.314-.994.754-1.953 1.24-2.879 1.455-.925.216-1.719.324-2.382.324-2.494 0-4.375-.593-5.641-1.779-1.267-1.186-1.9-2.877-1.9-5.073 0-.94.117-1.989.351-3.146l.497-2.352c.097-.393.16-.775.19-1.147.029-.373.044-.726.044-1.059 0-.882-.156-1.588-.468-2.117-.312-.529-.877-.794-1.695-.794-.682 0-1.379.201-2.09.603-.711.402-1.486.946-2.324 1.632L31.129 43.91h-8.623l1.593-7.514c-.497.44-.993.86-1.49 1.236-1.569 1.186-3.055 2.19-4.458 3.014a9.614 9.614 0 0 1-2.09 1.691c-.769.461-1.568.833-2.396 1.117-.828.284-1.666.49-2.514.617-.848.128-1.651.192-2.411.192-1.501 0-2.801-.231-3.902-.691-1.101-.461-2.012-1.059-2.733-1.794a7.01 7.01 0 0 1-1.593-2.47 7.793 7.793 0 0 1-.511-2.749c0-.706.092-1.358.277-1.956a6.868 6.868 0 0 1 .716-1.602 5.625 5.625 0 0 1 1.009-1.221c.38-.343.774-.612 1.183-.808 1.676-3.019 3.089-6.004 4.239-8.954a139.924 139.924 0 0 0 3.127-8.895l8.856-1.176c.117 2.607.229 4.866.336 6.777a382.834 382.834 0 0 0 .57 8.542c.078.981.151 1.848.219 2.603.069.755.117 1.441.146 2.058.03.618.044 1.26.044 1.926 0 .451-.014.863-.044 1.235a5.227 5.227 0 0 1-.189 1.059 33.71 33.71 0 0 0 2.382-1.514 20.17 20.17 0 0 0 1.914-1.515h.008l6.393-30.169 8.856-1.206-4.472 21.201 11.546-9.145h5.933L41.066 22.18a7.68 7.68 0 0 1 1.988-.265c1.111 0 2.08.186 2.908.559a5.716 5.716 0 0 1 2.061 1.529c.545.647.95 1.396 1.213 2.249.263.853.394 1.759.394 2.72 0 .373-.014.75-.043 1.132-.03.383-.093.77-.19 1.162l-.673 2.999c-.097.333-.17.657-.219.97a6.284 6.284 0 0 0-.073.971c0 .607.156 1.132.468 1.573.311.441.935.662 1.87.662.643 0 1.208-.128 1.695-.383a4.285 4.285 0 0 0 1.316-1.088 8.482 8.482 0 0 0 1.066-1.691c.322-.656.639-1.377.951-2.161l4.062-19.319h8.623l-4.297 20.466a6.813 6.813 0 0 0-.175 1.529c0 .353.029.686.087 1 .059.313.156.593.293.838.136.245.316.441.541.588.224.147.511.221.862.221.545 0 1.057-.123 1.534-.368a4.452 4.452 0 0 0 1.301-1.029 7.2 7.2 0 0 0 1.037-1.573c.302-.608.57-1.265.804-1.971l4.18-19.701h8.622l-5.933 27.935a13.198 13.198 0 0 0 2.484-1.132 8.87 8.87 0 0 0 2.032-1.676c.613-.677 1.169-1.485 1.666-2.426.497-.941.95-2.068 1.359-3.382l6.401-30.169 8.856-1.206-6.869 32.522a5.26 5.26 0 0 0-.19.985c-.029.324-.043.642-.043.956 0 .843.194 1.426.584 1.749.39.324 1.004.486 1.841.486a3.94 3.94 0 0 0 1.71-.397 5.506 5.506 0 0 0 1.535-1.103 7.873 7.873 0 0 0 1.257-1.691c.37-.657.672-1.367.906-2.132l4.062-19.319h8.623l-4.297 20.466a5.181 5.181 0 0 0-.19.985c-.029.324-.043.642-.043.956 0 .843.194 1.426.584 1.749.39.324 1.004.486 1.841.486a3.94 3.94 0 0 0 1.71-.397 5.52 5.52 0 0 0 1.535-1.103 7.873 7.873 0 0 0 1.257-1.691c.363-.644.658-1.341.89-2.089l4.078-19.362h8.623l-.643 3.117c.643-.725 1.281-1.309 1.914-1.749a8.909 8.909 0 0 1 1.856-1.015 7.87 7.87 0 0 1 1.71-.47 10.354 10.354 0 0 1 1.505-.118c.955 0 1.842.127 2.66.382a5.47 5.47 0 0 1 2.119 1.206c.594.549 1.057 1.254 1.388 2.117.332.863.497 1.891.497 3.087 0 .804-.073 1.672-.219 2.603a46.413 46.413 0 0 1-.541 2.852 96.796 96.796 0 0 1-.686 2.897c-.244.96-.473 1.881-.687 2.763a52.82 52.82 0 0 0-.541 2.456c-.146.755-.219 1.416-.219 1.985 0 .745.17 1.352.511 1.823.341.47.97.706 1.885.706.644 0 1.209-.128 1.696-.383a4.294 4.294 0 0 0 1.315-1.088c.39-.47.745-1.034 1.067-1.691.038-.077.075-.165.113-.245-.002-.111-.011-.214-.011-.328 0-1.157.117-2.489.351-3.999.234-1.51.604-3.058 1.111-4.646a26.381 26.381 0 0 1 2.016-4.675 18.415 18.415 0 0 1 3.04-4.102 14.06 14.06 0 0 1 4.18-2.911c1.598-.735 3.42-1.103 5.465-1.103 1.345 0 2.441.162 3.289.485.847.323 1.519.75 2.016 1.279a4.235 4.235 0 0 1 1.023 1.838c.186.696.278 1.416.278 2.161 0 1.745-.38 3.367-1.14 4.867zM65.355 48.13c-.701.342-1.32.72-1.856 1.131a5.47 5.47 0 0 0-1.286 1.368 3.012 3.012 0 0 0-.482 1.661c0 .216.039.441.117.676.078.236.2.452.365.647.166.196.375.353.628.471.254.118.556.176.907.176.623 0 1.261-.436 1.914-1.308.653-.873 1.174-2.22 1.564-4.043l.351-1.735c-.78.294-1.52.612-2.222.956zM11.999 32.427c-.03-.48-.063-.99-.103-1.529a61.898 61.898 0 0 0-.16-1.808c-.069-.667-.146-1.441-.234-2.323-.088-.882-.18-1.902-.278-3.059a500.098 500.098 0 0 1-.321-4.057 51.178 51.178 0 0 1-2.134 5.704 113.819 113.819 0 0 1-2.718 5.675c.389.216.716.49.979.824.263.333.395.754.395 1.264 0 .372-.059.735-.176 1.088a2.949 2.949 0 0 1-.526.956c-.234.284-.511.51-.833.676-.322.167-.687.25-1.096.25-.331 0-.643-.049-.935-.147-.293-.098-.517-.313-.673-.647 0 1.412.278 2.465.833 3.161.556.696 1.496 1.044 2.821 1.044.662 0 1.305-.093 1.929-.279a4.278 4.278 0 0 0 1.666-.941c.487-.441.877-1.015 1.169-1.72.292-.706.439-1.588.439-2.647 0-.51-.015-1.004-.044-1.485zM164.06 17.122c-.215-.451-.605-.676-1.17-.676-.76 0-1.505.377-2.236 1.132-.73.754-1.412 1.73-2.046 2.926a29.213 29.213 0 0 0-1.724 3.998 36.703 36.703 0 0 0-1.242 4.352 7.28 7.28 0 0 0 3.302-.926 10.395 10.395 0 0 0 2.792-2.235 10.79 10.79 0 0 0 1.929-3.131 9.617 9.617 0 0 0 .716-3.646c0-.745-.107-1.343-.321-1.794zm-49.82-7.954a5.017 5.017 0 0 1-1.52 1 4.686 4.686 0 0 1-1.856.367 4.682 4.682 0 0 1-1.856-.367 4.817 4.817 0 0 1-1.505-1 4.562 4.562 0 0 1-1.009-1.5 4.767 4.767 0 0 1-.365-1.867c0-.667.122-1.289.365-1.867a4.914 4.914 0 0 1 1.009-1.53c.428-.44.93-.788 1.505-1.043a4.524 4.524 0 0 1 1.856-.382c.662 0 1.281.127 1.856.382a4.979 4.979 0 0 1 2.557 2.573c.254.578.38 1.2.38 1.867s-.126 1.289-.38 1.867a4.636 4.636 0 0 1-1.037 1.5z" filter="url(#a)"/>
</svg>
