<svg xmlns="http://www.w3.org/2000/svg" width="100" height="34">
    <defs>
        <filter id="a">
            <feFlood flood-color="#FFF" flood-opacity="1" result="floodOut"/>
            <feComposite in="floodOut" in2="SourceGraphic" operator="atop" result="compOut"/>
            <feBlend in="compOut" in2="SourceGraphic"/>
        </filter>
    </defs>
    <path fill="#FAFBFB" fill-rule="evenodd" d="M99.325 13.442a7.631 7.631 0 0 1-1.807 2.302 9.369 9.369 0 0 1-2.603 1.585 9.644 9.644 0 0 1-3.061.707c-.023.195-.044.382-.061.56a5.374 5.374 0 0 0-.026.509c0 .563.058 1.034.173 1.413.115.38.271.681.467.905.196.224.427.382.692.474.265.092.553.138.865.138a4.07 4.07 0 0 0 1.08-.155 6.686 6.686 0 0 0 1.107-.414c.363-.172.718-.37 1.064-.594.346-.225.657-.463.934-.716-.185 1.023-.473 1.868-.865 2.534-.392.667-.859 1.201-1.401 1.603a4.96 4.96 0 0 1-1.798.845 8.632 8.632 0 0 1-2.059.241c-.83 0-1.582-.106-2.257-.319a4.435 4.435 0 0 1-1.729-.991c-.478-.448-.85-1.026-1.115-1.732l-.009-.027v.001c-.571.862-1.147 1.52-1.73 1.974-.582.454-1.153.749-1.712.887a6.492 6.492 0 0 1-1.548.207c-.784 0-1.441-.112-1.971-.336-.531-.224-.957-.523-1.28-.896a3.46 3.46 0 0 1-.701-1.276 5.07 5.07 0 0 1-.216-1.474c0-.597.084-1.295.251-2.094.167-.799.349-1.617.545-2.456.196-.839.377-1.649.545-2.431.167-.781.25-1.454.25-2.017 0-1.206-.426-1.81-1.279-1.81-.323 0-.623.087-.9.259-.276.172-.53.405-.761.698-.23.293-.438.638-.622 1.034-.185.397-.346.819-.485 1.267l-2.404 11.325h-5.102l.44-2.067a6.989 6.989 0 0 1-2.723 1.861c-.438.16-.856.269-1.253.327a7.455 7.455 0 0 1-1.064.086c-.531 0-1.026-.08-1.488-.241a3.108 3.108 0 0 1-1.202-.759c-.34-.344-.608-.781-.804-1.31a4.465 4.465 0 0 1-.216-.858c-.232.328-.467.63-.709.893a7.035 7.035 0 0 1-1.366 1.172c-.467.299-.92.529-1.358.69-.438.16-.856.269-1.254.327a7.442 7.442 0 0 1-1.063.086c-.531 0-1.027-.08-1.488-.241a3.1 3.1 0 0 1-1.202-.759c-.34-.344-.608-.781-.804-1.31a4.39 4.39 0 0 1-.182-.723 8.36 8.36 0 0 1-1.184 1.353 6.65 6.65 0 0 1-1.713 1.146 10.19 10.19 0 0 1-1.712.603l-.536 2.551c-.253 1.264-.62 2.287-1.098 3.069-.478.781-1.012 1.39-1.6 1.827a4.999 4.999 0 0 1-1.842.879 8.124 8.124 0 0 1-1.842.224 5.283 5.283 0 0 1-1.53-.216 3.73 3.73 0 0 1-1.254-.637 3.068 3.068 0 0 1-.856-1.069c-.214-.431-.32-.934-.32-1.508 0-.736.176-1.385.527-1.948a5.502 5.502 0 0 1 1.358-1.474 9.052 9.052 0 0 1 1.859-1.077 19.642 19.642 0 0 1 2.032-.759l.433-1.896c-.381.414-.761.75-1.142 1.009-.38.258-.749.456-1.107.594a5.027 5.027 0 0 1-1.037.285 6.442 6.442 0 0 1-.969.077 4.48 4.48 0 0 1-1.487-.241 3.1 3.1 0 0 1-1.202-.759c-.34-.344-.608-.781-.804-1.31a4.352 4.352 0 0 1-.173-.686c-.591.862-1.179 1.513-1.765 1.953-.587.443-1.155.727-1.703.854-.548.126-1.017.189-1.41.189-1.475 0-2.588-.347-3.337-1.043-.75-.695-1.125-1.686-1.125-2.973 0-.552.07-1.166.208-1.845l.294-1.378c.058-.23.095-.454.112-.673.018-.218.026-.425.026-.62 0-.517-.092-.931-.276-1.241-.185-.311-.519-.466-1.004-.466-.403 0-.815.118-1.236.353a9.984 9.984 0 0 0-1.375.957l-1.851 8.722h-5.102l.943-4.404c-.294.258-.588.504-.882.724a27.472 27.472 0 0 1-2.638 1.767 5.673 5.673 0 0 1-1.236.991c-.456.27-.928.489-1.418.655-.49.167-.986.287-1.488.362a9.654 9.654 0 0 1-1.427.112c-.887 0-1.657-.135-2.308-.405-.652-.27-1.191-.62-1.618-1.052a4.11 4.11 0 0 1-.942-1.447A4.533 4.533 0 0 1 0 20.863c0-.414.055-.796.165-1.146.109-.351.25-.664.423-.94.173-.276.372-.514.597-.715.225-.201.458-.359.7-.474a42.715 42.715 0 0 0 2.508-5.249 81.197 81.197 0 0 0 1.851-5.214l5.24-.69c.069 1.529.136 2.853.199 3.973a206.975 206.975 0 0 0 .467 6.533c.04.443.069.845.086 1.207.018.362.026.738.026 1.129 0 .265-.008.506-.026.724a3.007 3.007 0 0 1-.112.621 19.36 19.36 0 0 0 1.409-.888c.421-.293.799-.589 1.133-.888h.005l3.783-17.685 5.24-.707-2.646 12.428 6.832-5.361h3.511L24.3 12.434a4.612 4.612 0 0 1 1.176-.155c.657 0 1.231.109 1.721.327.49.219.896.517 1.219.897.323.379.562.818.718 1.318.155.5.233 1.032.233 1.595 0 .218-.009.439-.026.663a4.097 4.097 0 0 1-.112.681l-.398 1.758a4.438 4.438 0 0 0-.13.569 3.654 3.654 0 0 0-.043.569c0 .356.092.664.277.922.184.259.553.388 1.107.388.38 0 .714-.074 1.003-.224.288-.149.547-.362.778-.638.231-.276.441-.606.631-.991s.378-.807.562-1.267L35.42 7.521h5.102L37.98 19.518a3.978 3.978 0 0 0-.104.897c0 .207.017.402.052.586.035.184.092.347.173.491a.966.966 0 0 0 .32.345.923.923 0 0 0 .51.129c.323 0 .626-.072.908-.215.283-.144.539-.345.77-.604a4.24 4.24 0 0 0 .614-.922 8.81 8.81 0 0 0 .475-1.155l2.473-11.549h5.102l-3.51 16.376a7.816 7.816 0 0 0 1.47-.664 5.253 5.253 0 0 0 1.202-.982c.363-.397.691-.871.986-1.423a11.66 11.66 0 0 0 .804-1.982l3.787-17.685 5.241-.707-4.065 19.064a3.037 3.037 0 0 0-.112.578c-.017.19-.026.376-.026.56 0 .494.115.836.346 1.026.231.189.594.284 1.089.284.346 0 .684-.077 1.012-.232.329-.156.632-.371.908-.647.277-.276.525-.606.744-.991.219-.385.398-.802.536-1.25l2.404-11.325h5.102l-2.542 11.997a3.04 3.04 0 0 0-.113.578c-.017.19-.026.376-.026.56 0 .494.116.836.346 1.026.231.189.594.284 1.09.284.346 0 .683-.077 1.012-.232.328-.156.631-.371.907-.647.277-.276.525-.606.744-.991.215-.378.39-.786.527-1.224l2.413-11.351h5.102l-.38 1.827a6.46 6.46 0 0 1 1.133-1.025 5.298 5.298 0 0 1 1.098-.595c.357-.138.695-.23 1.012-.276.317-.046.614-.069.89-.069.565 0 1.09.075 1.574.225.484.149.902.384 1.254.706.352.322.626.736.822 1.241.196.506.294 1.109.294 1.81 0 .471-.044.98-.13 1.526a27.78 27.78 0 0 1-.32 1.672 56.671 56.671 0 0 1-.406 1.698c-.145.563-.28 1.103-.407 1.62-.127.517-.233.997-.32 1.439a6.22 6.22 0 0 0-.13 1.164c0 .436.101.793.303 1.069.202.275.574.413 1.116.413.38 0 .714-.074 1.003-.224.288-.149.547-.362.778-.638.231-.276.441-.606.631-.991.023-.046.045-.097.067-.143-.001-.066-.006-.126-.006-.193 0-.678.069-1.459.207-2.344a18.1 18.1 0 0 1 .657-2.724c.3-.931.698-1.844 1.194-2.74a10.803 10.803 0 0 1 1.798-2.405 8.327 8.327 0 0 1 2.474-1.707c.945-.43 2.023-.646 3.234-.646.795 0 1.444.095 1.945.284.502.19.9.44 1.194.75.294.311.496.67.605 1.077.11.409.164.831.164 1.267a6.17 6.17 0 0 1-.674 2.853zM38.672 27.646a6.405 6.405 0 0 0-1.098.664 3.184 3.184 0 0 0-.761.801 1.746 1.746 0 0 0-.286.974c0 .127.023.259.069.396.046.138.119.265.217.38.097.115.221.207.371.276.15.068.329.103.537.103.368 0 .746-.256 1.132-.767.387-.512.695-1.302.926-2.37l.207-1.017c-.461.172-.899.359-1.314.56zM7.1 18.441c-.018-.281-.038-.58-.061-.896a33.514 33.514 0 0 0-.095-1.06l-.138-1.362c-.052-.517-.107-1.115-.164-1.793-.058-.678-.122-1.471-.191-2.379a29.783 29.783 0 0 1-1.262 3.345 66.129 66.129 0 0 1-1.609 3.326c.231.127.424.288.58.483.155.195.233.442.233.741 0 .218-.034.431-.104.638a1.72 1.72 0 0 1-.311.56 1.552 1.552 0 0 1-.493.397c-.19.097-.406.146-.648.146-.196 0-.381-.029-.554-.086-.173-.057-.305-.184-.398-.379 0 .827.165 1.445.493 1.853.329.408.885.612 1.669.612.392 0 .773-.055 1.142-.164.369-.109.697-.293.986-.552.288-.258.519-.594.691-1.008.173-.414.26-.931.26-1.551 0-.299-.009-.589-.026-.871zm89.977-8.972c-.127-.264-.358-.396-.692-.396-.45 0-.891.221-1.323.663-.433.443-.836 1.014-1.211 1.715a16.979 16.979 0 0 0-1.02 2.345 21.154 21.154 0 0 0-.735 2.551 4.347 4.347 0 0 0 1.954-.543 6.162 6.162 0 0 0 1.652-1.31 6.333 6.333 0 0 0 1.141-1.836 5.575 5.575 0 0 0 .424-2.137c0-.437-.064-.788-.19-1.052zm-29.48-4.663a2.947 2.947 0 0 1-.899.586c-.34.144-.706.216-1.098.216a2.85 2.85 0 0 1-1.989-.802 2.664 2.664 0 0 1-.597-.879 2.77 2.77 0 0 1-.216-1.094c0-.391.072-.756.216-1.095A2.857 2.857 0 0 1 64.502.23c.34-.149.706-.224 1.098-.224.392 0 .758.075 1.098.224.34.149.64.353.899.612.26.258.465.557.614.896.15.339.225.704.225 1.095a2.694 2.694 0 0 1-.839 1.973z" filter="url(#a)"/>
</svg>
