<?xml version="1.0" encoding="UTF-8" standalone="no"?>
<svg
   xmlns:dc="http://purl.org/dc/elements/1.1/"
   xmlns:cc="http://creativecommons.org/ns#"
   xmlns:rdf="http://www.w3.org/1999/02/22-rdf-syntax-ns#"
   xmlns:svg="http://www.w3.org/2000/svg"
   xmlns="http://www.w3.org/2000/svg"
   xmlns:sodipodi="http://sodipodi.sourceforge.net/DTD/sodipodi-0.dtd"
   xmlns:inkscape="http://www.inkscape.org/namespaces/inkscape"
   width="356"
   height="158"
   viewBox="0 0 356 158"
   fill="none"
   version="1.1"
   id="svg38"
   sodipodi:docname="Group 21 (1).svg">
  <metadata
     id="metadata44">
    <rdf:RDF>
      <cc:Work
         rdf:about="">
        <dc:format>image/svg+xml</dc:format>
        <dc:type
           rdf:resource="http://purl.org/dc/dcmitype/StillImage" />
      </cc:Work>
    </rdf:RDF>
  </metadata>
  <defs
     id="defs42" />
  <sodipodi:namedview
     pagecolor="#ffffff"
     bordercolor="#666666"
     borderopacity="1"
     objecttolerance="10"
     gridtolerance="10"
     guidetolerance="10"
     inkscape:pageopacity="0"
     inkscape:pageshadow="2"
     inkscape:window-width="640"
     inkscape:window-height="480"
     id="namedview40" />
  <path
     d="M140.849 105.351C137.871 105.351 135.11 104.783 132.566 103.646C130.021 102.455 127.801 100.858 125.907 98.8545C124.066 96.7972 122.604 94.4422 121.521 91.7895C120.493 89.1367 119.979 86.2944 119.979 83.2627C119.979 80.2851 120.493 77.497 121.521 74.8984C122.604 72.2456 124.066 69.9447 125.907 67.9958C127.747 65.9927 129.913 64.4227 132.403 63.2858C134.948 62.1489 137.682 61.5804 140.605 61.5804C143.583 61.5804 146.344 62.1759 148.888 63.367C151.433 64.5039 153.625 66.0739 155.466 68.077C157.307 70.0259 158.741 72.3268 159.77 74.9796C160.799 77.5782 161.313 80.3392 161.313 83.2627C161.313 83.5334 161.313 83.8853 161.313 84.3184C161.313 84.6973 161.286 84.941 161.232 85.0492H124.201C124.364 87.4854 124.932 89.7593 125.907 91.8707C126.881 93.9279 128.099 95.7145 129.561 97.2303C131.077 98.7462 132.809 99.9372 134.758 100.803C136.707 101.67 138.791 102.103 141.011 102.103C142.473 102.103 143.907 101.913 145.315 101.534C146.723 101.101 148.022 100.533 149.213 99.829C150.458 99.1252 151.541 98.286 152.461 97.3115C153.436 96.2829 154.194 95.1731 154.735 93.982L158.308 94.9565C157.713 96.4724 156.819 97.88 155.628 99.1793C154.491 100.424 153.138 101.507 151.568 102.428C150.052 103.348 148.374 104.052 146.533 104.539C144.692 105.08 142.798 105.351 140.849 105.351ZM157.415 81.8009C157.253 79.3106 156.684 77.0368 155.71 74.9796C154.789 72.9223 153.571 71.1628 152.055 69.7011C150.594 68.1852 148.888 67.0213 146.939 66.2092C144.99 65.343 142.906 64.9099 140.686 64.9099C138.467 64.9099 136.382 65.343 134.433 66.2092C132.484 67.0213 130.752 68.1852 129.236 69.7011C127.774 71.1628 126.583 72.9494 125.663 75.0608C124.797 77.118 124.282 79.3647 124.12 81.8009H157.415Z"
     fill="#2F8FFF"
     stroke="#2F8FFF"
     id="path2" />
  <path
     d="M18.1347 105.351C14.8864 105.351 11.7735 104.81 8.79587 103.727C5.81828 102.644 3.21966 101.02 1 98.8545L3.03017 96.0935C5.30397 98.1507 7.65897 99.6666 10.0952 100.641C12.5314 101.616 15.2112 102.103 18.1347 102.103C21.816 102.103 24.7666 101.345 26.9862 99.829C29.26 98.259 30.3969 96.0934 30.3969 93.3324C30.3969 92.0331 30.0992 90.9503 29.5036 90.0841C28.9623 89.1638 28.1231 88.4058 26.9862 87.8103C25.8493 87.1607 24.4417 86.5922 22.7635 86.1049C21.0852 85.6177 19.1362 85.1034 16.9166 84.562C14.5345 84.0206 12.4502 83.4792 10.6636 82.9379C8.93121 82.3965 7.49656 81.7468 6.35966 80.9889C5.22276 80.2309 4.35655 79.3106 3.76104 78.2278C3.21966 77.1451 2.94897 75.7646 2.94897 74.0863C2.94897 71.9749 3.355 70.1342 4.16707 68.5642C4.97914 66.9942 6.08897 65.6949 7.49656 64.6663C8.95828 63.6377 10.6095 62.8797 12.4502 62.3925C14.345 61.8511 16.3481 61.5804 18.4595 61.5804C21.7619 61.5804 24.6854 62.1489 27.2298 63.2858C29.7743 64.3685 31.7504 65.7761 33.158 67.5085L30.8842 69.7011C29.4766 68.077 27.6359 66.8589 25.3621 66.0468C23.1424 65.2347 20.7604 64.8287 18.2159 64.8287C16.6459 64.8287 15.1571 64.9911 13.7495 65.3159C12.396 65.6408 11.205 66.1551 10.1764 66.8589C9.14776 67.5627 8.33569 68.483 7.74018 69.6199C7.14466 70.7027 6.8469 72.002 6.8469 73.5178C6.8469 74.763 7.03638 75.7646 7.41535 76.5225C7.84845 77.2804 8.49811 77.9301 9.36432 78.4715C10.2847 79.0128 11.4486 79.5001 12.8562 79.9332C14.2638 80.3122 15.9421 80.7453 17.891 81.2325C20.5438 81.8822 22.8988 82.5047 24.956 83.1003C27.0133 83.6958 28.7186 84.4267 30.0721 85.2929C31.4797 86.1591 32.5354 87.1877 33.2392 88.3788C33.9971 89.5698 34.3761 91.0857 34.3761 92.9264C34.3761 96.716 32.8873 99.7478 29.9097 102.022C26.9862 104.241 23.0612 105.351 18.1347 105.351Z"
     fill="#2F8FFF"
     id="path4" />
  <path
     d="M54.7139 83.2627C54.7139 80.2851 55.2283 77.4699 56.2569 74.8172C57.2855 72.1644 58.7202 69.8635 60.5609 67.9146C62.4015 65.9656 64.5941 64.4227 67.1386 63.2858C69.6831 62.1489 72.4712 61.5804 75.5029 61.5804C79.3467 61.5804 82.7303 62.4466 85.6538 64.179C88.5772 65.9115 90.7698 68.3206 92.2316 71.4065L88.2524 72.7058C87.0072 70.3778 85.2207 68.5642 82.8928 67.2649C80.619 65.9115 78.1015 65.2347 75.3405 65.2347C73.0126 65.2347 70.8471 65.6949 68.844 66.6152C66.8409 67.5356 65.0814 68.8078 63.5655 70.432C62.1038 72.0561 60.9398 73.978 60.0736 76.1977C59.2074 78.3632 58.7743 80.7182 58.7743 83.2627C58.7743 85.8072 59.2074 88.2163 60.0736 90.4901C60.994 92.7098 62.185 94.6588 63.6467 96.3371C65.1626 97.9612 66.9221 99.2605 68.9252 100.235C70.9824 101.209 73.1479 101.697 75.4217 101.697C76.8834 101.697 78.3181 101.48 79.7257 101.047C81.1874 100.614 82.5138 100.046 83.7048 99.3417C84.95 98.6379 86.0057 97.8259 86.8719 96.9055C87.7922 95.931 88.4148 94.9295 88.7397 93.9008L92.7188 95.0378C92.1774 96.4995 91.3383 97.88 90.2014 99.1793C89.1186 100.424 87.8193 101.507 86.3035 102.428C84.7876 103.348 83.1093 104.052 81.2686 104.539C79.4279 105.08 77.5331 105.351 75.5841 105.351C72.6065 105.351 69.8455 104.783 67.301 103.646C64.7565 102.455 62.5369 100.858 60.6421 98.8545C58.8014 96.7972 57.3396 94.4422 56.2569 91.7895C55.2283 89.1367 54.7139 86.2944 54.7139 83.2627Z"
     fill="#2F8FFF"
     id="path6" />
  <path
     d="M181.442 1.00002H185.583V96.1747C185.583 97.7447 186.016 98.9898 186.883 99.9102C187.803 100.831 189.048 101.291 190.618 101.291C191.214 101.291 191.917 101.237 192.73 101.128C193.596 100.966 194.381 100.749 195.085 100.479L195.897 103.727C194.976 104.106 193.839 104.404 192.486 104.62C191.133 104.891 189.969 105.026 188.994 105.026C186.72 105.026 184.88 104.35 183.472 102.996C182.119 101.588 181.442 99.7207 181.442 97.3928V1.00002Z"
     fill="#2F8FFF"
     id="path8" />
  <path
     d="M290.796 104.539H286.736V80.9889C286.736 75.521 285.951 71.5418 284.381 69.0515C282.865 66.5611 280.429 65.3159 277.072 65.3159C275.286 65.3159 273.499 65.6408 271.713 66.2904C269.98 66.9401 268.356 67.8604 266.84 69.0515C265.325 70.2425 263.998 71.6501 262.861 73.2742C261.724 74.8442 260.885 76.5496 260.344 78.3903V104.539H256.284V62.3113H260.1V72.3809C260.966 70.7568 262.022 69.2951 263.267 67.9958C264.567 66.6423 266.001 65.5054 267.571 64.5851C269.195 63.6106 270.901 62.8797 272.687 62.3925C274.474 61.8511 276.315 61.5804 278.209 61.5804C282.811 61.5804 286.059 63.2046 287.954 66.4528C289.849 69.647 290.796 74.2487 290.796 80.258V104.539Z"
     fill="#2F8FFF"
     id="path10" />
  <path
     d="M334.825 105.351C331.847 105.351 329.086 104.783 326.542 103.646C323.997 102.455 321.777 100.858 319.883 98.8545C318.042 96.7972 316.58 94.4422 315.497 91.7895C314.469 89.1367 313.954 86.2944 313.954 83.2627C313.954 80.2851 314.469 77.497 315.497 74.8984C316.58 72.2456 318.042 69.9447 319.883 67.9958C321.723 65.9927 323.889 64.4227 326.379 63.2858C328.924 62.1489 331.658 61.5804 334.581 61.5804C337.559 61.5804 340.32 62.1759 342.864 63.367C345.409 64.5039 347.601 66.0739 349.442 68.077C351.283 70.0259 352.717 72.3268 353.746 74.9796C354.774 77.5782 355.289 80.3392 355.289 83.2627C355.289 83.5334 355.289 83.8853 355.289 84.3184C355.289 84.6974 355.262 84.941 355.208 85.0492H318.177C318.34 87.4855 318.908 89.7593 319.883 91.8707C320.857 93.9279 322.075 95.7145 323.537 97.2303C325.053 98.7462 326.785 99.9372 328.734 100.803C330.683 101.67 332.767 102.103 334.987 102.103C336.449 102.103 337.883 101.913 339.291 101.534C340.699 101.101 341.998 100.533 343.189 99.829C344.434 99.1252 345.517 98.286 346.437 97.3115C347.412 96.2829 348.17 95.1731 348.711 93.9821L352.284 94.9565C351.689 96.4724 350.795 97.88 349.604 99.1793C348.467 100.424 347.114 101.507 345.544 102.428C344.028 103.348 342.35 104.052 340.509 104.539C338.668 105.08 336.774 105.351 334.825 105.351ZM351.391 81.8009C351.228 79.3106 350.66 77.0368 349.685 74.9796C348.765 72.9223 347.547 71.1628 346.031 69.7011C344.569 68.1852 342.864 67.0213 340.915 66.2092C338.966 65.343 336.882 64.9099 334.662 64.9099C332.443 64.9099 330.358 65.343 328.409 66.2092C326.46 67.0213 324.728 68.1852 323.212 69.7011C321.75 71.1628 320.559 72.9494 319.639 75.0608C318.773 77.118 318.258 79.3647 318.096 81.8009H351.391Z"
     fill="#2F8FFF"
     id="path12" />
  <path
     d="M18.1347 105.351C14.8864 105.351 11.7735 104.81 8.79587 103.727C5.81828 102.644 3.21966 101.02 1 98.8545L3.03017 96.0935C5.30397 98.1507 7.65897 99.6666 10.0952 100.641C12.5314 101.616 15.2112 102.103 18.1347 102.103C21.816 102.103 24.7666 101.345 26.9862 99.829C29.26 98.259 30.3969 96.0934 30.3969 93.3324C30.3969 92.0331 30.0992 90.9503 29.5036 90.0841C28.9623 89.1638 28.1231 88.4058 26.9862 87.8103C25.8493 87.1607 24.4417 86.5922 22.7635 86.1049C21.0852 85.6177 19.1362 85.1034 16.9166 84.562C14.5345 84.0206 12.4502 83.4792 10.6636 82.9379C8.93121 82.3965 7.49656 81.7468 6.35966 80.9889C5.22276 80.2309 4.35655 79.3106 3.76104 78.2278C3.21966 77.1451 2.94897 75.7646 2.94897 74.0863C2.94897 71.9749 3.355 70.1342 4.16707 68.5642C4.97914 66.9942 6.08897 65.6949 7.49656 64.6663C8.95828 63.6377 10.6095 62.8797 12.4502 62.3925C14.345 61.8511 16.3481 61.5804 18.4595 61.5804C21.7619 61.5804 24.6854 62.1489 27.2298 63.2858C29.7743 64.3685 31.7504 65.7761 33.158 67.5085L30.8842 69.7011C29.4766 68.077 27.6359 66.8589 25.3621 66.0468C23.1424 65.2347 20.7604 64.8287 18.2159 64.8287C16.6459 64.8287 15.1571 64.9911 13.7495 65.3159C12.396 65.6408 11.205 66.1551 10.1764 66.8589C9.14776 67.5627 8.33569 68.483 7.74018 69.6199C7.14466 70.7027 6.8469 72.002 6.8469 73.5178C6.8469 74.763 7.03638 75.7646 7.41535 76.5225C7.84845 77.2804 8.49811 77.9301 9.36432 78.4715C10.2847 79.0128 11.4486 79.5001 12.8562 79.9332C14.2638 80.3122 15.9421 80.7453 17.891 81.2325C20.5438 81.8822 22.8988 82.5047 24.956 83.1003C27.0133 83.6958 28.7186 84.4267 30.0721 85.2929C31.4797 86.1591 32.5354 87.1877 33.2392 88.3788C33.9971 89.5698 34.3761 91.0857 34.3761 92.9264C34.3761 96.716 32.8873 99.7478 29.9097 102.022C26.9862 104.241 23.0612 105.351 18.1347 105.351Z"
     stroke="#2F8FFF"
     id="path14" />
  <path
     d="M54.7139 83.2627C54.7139 80.2851 55.2283 77.4699 56.2569 74.8172C57.2855 72.1644 58.7202 69.8635 60.5609 67.9146C62.4015 65.9656 64.5941 64.4227 67.1386 63.2858C69.6831 62.1489 72.4712 61.5804 75.5029 61.5804C79.3467 61.5804 82.7303 62.4466 85.6538 64.179C88.5772 65.9115 90.7698 68.3206 92.2316 71.4065L88.2524 72.7058C87.0072 70.3778 85.2207 68.5642 82.8928 67.2649C80.619 65.9115 78.1015 65.2347 75.3405 65.2347C73.0126 65.2347 70.8471 65.6949 68.844 66.6152C66.8409 67.5356 65.0814 68.8078 63.5655 70.432C62.1038 72.0561 60.9398 73.978 60.0736 76.1977C59.2074 78.3632 58.7743 80.7182 58.7743 83.2627C58.7743 85.8072 59.2074 88.2163 60.0736 90.4901C60.994 92.7098 62.185 94.6588 63.6467 96.3371C65.1626 97.9612 66.9221 99.2605 68.9252 100.235C70.9824 101.209 73.1479 101.697 75.4217 101.697C76.8834 101.697 78.3181 101.48 79.7257 101.047C81.1874 100.614 82.5138 100.046 83.7048 99.3417C84.95 98.6379 86.0057 97.8259 86.8719 96.9055C87.7922 95.931 88.4148 94.9295 88.7397 93.9008L92.7188 95.0378C92.1774 96.4995 91.3383 97.88 90.2014 99.1793C89.1186 100.424 87.8193 101.507 86.3035 102.428C84.7876 103.348 83.1093 104.052 81.2686 104.539C79.4279 105.08 77.5331 105.351 75.5841 105.351C72.6065 105.351 69.8455 104.783 67.301 103.646C64.7565 102.455 62.5369 100.858 60.6421 98.8545C58.8014 96.7972 57.3396 94.4422 56.2569 91.7895C55.2283 89.1367 54.7139 86.2944 54.7139 83.2627Z"
     stroke="#2F8FFF"
     id="path16" />
  <path
     d="M181.442 1.00002H185.583V96.1747C185.583 97.7447 186.016 98.9898 186.883 99.9102C187.803 100.831 189.048 101.291 190.618 101.291C191.214 101.291 191.917 101.237 192.73 101.128C193.596 100.966 194.381 100.749 195.085 100.479L195.897 103.727C194.976 104.106 193.839 104.404 192.486 104.62C191.133 104.891 189.969 105.026 188.994 105.026C186.72 105.026 184.88 104.35 183.472 102.996C182.119 101.588 181.442 99.7207 181.442 97.3928V1.00002Z"
     stroke="#2F8FFF"
     id="path18" />
  <path
     d="M290.796 104.539H286.736V80.9889C286.736 75.521 285.951 71.5418 284.381 69.0515C282.865 66.5611 280.429 65.3159 277.072 65.3159C275.286 65.3159 273.499 65.6408 271.713 66.2904C269.98 66.9401 268.356 67.8604 266.84 69.0515C265.325 70.2425 263.998 71.6501 262.861 73.2742C261.724 74.8442 260.885 76.5496 260.344 78.3903V104.539H256.284V62.3113H260.1V72.3809C260.966 70.7568 262.022 69.2951 263.267 67.9958C264.567 66.6423 266.001 65.5054 267.571 64.5851C269.195 63.6106 270.901 62.8797 272.687 62.3925C274.474 61.8511 276.315 61.5804 278.209 61.5804C282.811 61.5804 286.059 63.2046 287.954 66.4528C289.849 69.647 290.796 74.2487 290.796 80.258V104.539Z"
     stroke="#2F8FFF"
     id="path20" />
  <path
     d="M334.825 105.351C331.847 105.351 329.086 104.783 326.542 103.646C323.997 102.455 321.777 100.858 319.883 98.8545C318.042 96.7972 316.58 94.4422 315.497 91.7895C314.469 89.1367 313.954 86.2944 313.954 83.2627C313.954 80.2851 314.469 77.497 315.497 74.8984C316.58 72.2456 318.042 69.9447 319.883 67.9958C321.723 65.9927 323.889 64.4227 326.379 63.2858C328.924 62.1489 331.658 61.5804 334.581 61.5804C337.559 61.5804 340.32 62.1759 342.864 63.367C345.409 64.5039 347.601 66.0739 349.442 68.077C351.283 70.0259 352.717 72.3268 353.746 74.9796C354.774 77.5782 355.289 80.3392 355.289 83.2627C355.289 83.5334 355.289 83.8853 355.289 84.3184C355.289 84.6974 355.262 84.941 355.208 85.0492H318.177C318.34 87.4855 318.908 89.7593 319.883 91.8707C320.857 93.9279 322.075 95.7145 323.537 97.2303C325.053 98.7462 326.785 99.9372 328.734 100.803C330.683 101.67 332.767 102.103 334.987 102.103C336.449 102.103 337.883 101.913 339.291 101.534C340.699 101.101 341.998 100.533 343.189 99.829C344.434 99.1252 345.517 98.286 346.437 97.3115C347.412 96.2829 348.17 95.1731 348.711 93.9821L352.284 94.9565C351.689 96.4724 350.795 97.88 349.604 99.1793C348.467 100.424 347.114 101.507 345.544 102.428C344.028 103.348 342.35 104.052 340.509 104.539C338.668 105.08 336.774 105.351 334.825 105.351ZM351.391 81.8009C351.228 79.3106 350.66 77.0368 349.685 74.9796C348.765 72.9223 347.547 71.1628 346.031 69.7011C344.569 68.1852 342.864 67.0213 340.915 66.2092C338.966 65.343 336.882 64.9099 334.662 64.9099C332.443 64.9099 330.358 65.343 328.409 66.2092C326.46 67.0213 324.728 68.1852 323.212 69.7011C321.75 71.1628 320.559 72.9494 319.639 75.0608C318.773 77.118 318.258 79.3647 318.096 81.8009H351.391Z"
     stroke="#2F8FFF"
     id="path22" />
  <path
     d="M224 104.8V73.6H227V104.8H224ZM224 66.52V61H227V66.52H224Z"
     fill="#2F8FFF"
     stroke="#2F8FFF"
     id="path24" />
  <path
     fill-rule="evenodd"
     clip-rule="evenodd"
     d="M133.658 57.9724C133.658 59.5669 133.229 61.0612 132.48 62.346C131.273 65.0394 128.434 71.9099 128.347 77.1191C128.233 84 130.117 90.9506 133.921 99.9133C134.978 101.565 135.59 103.527 135.59 105.633C135.59 111.502 130.832 116.26 124.963 116.26C119.094 116.26 114.336 111.502 114.336 105.633C114.336 103.629 114.891 101.753 115.856 100.153C119.069 91.1251 121.038 84.1144 121.097 77.1191C121.143 71.7406 118.326 64.5317 117.289 62.0638C116.638 60.8444 116.268 59.4515 116.268 57.9724C116.268 53.1704 120.161 49.2776 124.963 49.2776C129.765 49.2776 133.658 53.1704 133.658 57.9724Z"
     fill="white"
     id="path26" />
  <path
     fill-rule="evenodd"
     clip-rule="evenodd"
     d="M127.112 60.6908C127.112 62.142 126.722 63.502 126.04 64.6715C124.941 67.1229 122.356 73.3786 122.277 78.1215C122.173 84.3858 123.889 90.7135 127.352 98.8733C128.314 100.376 128.871 102.163 128.871 104.08C128.871 109.423 124.54 113.755 119.197 113.755C113.853 113.755 109.522 109.423 109.522 104.08C109.522 102.255 110.027 100.548 110.906 99.0907C113.831 90.872 115.623 84.4897 115.677 78.1215C115.718 73.2256 113.155 66.6639 112.211 64.4163C111.617 63.306 111.281 62.0377 111.281 60.6908C111.281 56.3191 114.825 52.7752 119.196 52.7752C123.568 52.7752 127.112 56.3191 127.112 60.6908Z"
     fill="#1D82F9"
     id="path28" />
  <circle
     cx="119.5"
     cy="38.5"
     r="6.5"
     fill="#2F8FFF"
     id="circle30" />
  <circle
     cx="106"
     cy="16"
     r="5"
     fill="#00D3F0"
     id="circle32" />
  <circle
     cx="125.5"
     cy="8.5"
     r="2.5"
     fill="#2FE6FF"
     id="circle34" />
  <path
     d="M36.8008 134.307C37.9128 133.177 39.1888 132.612 40.6289 132.612C42.0872 132.612 43.3268 133.122 44.3477 134.143C45.4779 135.273 46.0521 136.741 46.0703 138.546C46.0703 140.368 45.4961 141.845 44.3477 142.975C43.2904 143.996 42.0417 144.497 40.6016 144.479C39.1797 144.479 37.9128 143.914 36.8008 142.784V148.499C36.8008 148.79 36.7005 149.036 36.5 149.237C36.3177 149.437 36.0807 149.538 35.7891 149.538C35.4974 149.538 35.2513 149.437 35.0508 149.237C34.8685 149.036 34.7773 148.79 34.7773 148.499V133.733C34.7773 133.46 34.8685 133.223 35.0508 133.022C35.2513 132.822 35.4974 132.721 35.7891 132.721C36.0807 132.721 36.3177 132.822 36.5 133.022C36.7005 133.204 36.8008 133.441 36.8008 133.733V134.307ZM36.8008 140.897C37.8216 142.027 39.0065 142.583 40.3555 142.565C42.069 142.565 43.2083 141.809 43.7734 140.296C43.9557 139.785 44.0378 139.202 44.0195 138.546C44.0195 137.27 43.6823 136.267 43.0078 135.538C42.3516 134.863 41.4674 134.526 40.3555 134.526C39.0065 134.526 37.8216 135.082 36.8008 136.194V140.897ZM58.118 132.612C59.8497 132.612 61.2443 133.159 62.3016 134.253C63.3589 135.365 63.8693 136.796 63.8328 138.546C63.8328 140.314 63.3224 141.745 62.3016 142.839C61.2443 143.932 59.8497 144.479 58.118 144.479C56.368 144.479 54.9826 143.932 53.9617 142.839C52.9044 141.745 52.3758 140.314 52.3758 138.546C52.3758 136.759 52.9044 135.328 53.9617 134.253C54.9826 133.159 56.368 132.612 58.118 132.612ZM55.6023 141.717C55.9669 142.027 56.368 142.255 56.8055 142.401C57.2612 142.547 57.6987 142.62 58.118 142.62C58.5372 142.62 58.9656 142.547 59.4031 142.401C59.8406 142.255 60.2417 142.018 60.6063 141.69C61.4083 140.961 61.8094 139.904 61.8094 138.518C61.8094 137.169 61.4083 136.121 60.6063 135.374C59.9318 134.754 59.1023 134.453 58.118 134.471C56.4956 134.471 55.3745 135.201 54.7547 136.659C54.5359 137.187 54.4266 137.816 54.4266 138.546C54.4266 139.275 54.5359 139.904 54.7547 140.432C54.9734 140.961 55.256 141.389 55.6023 141.717ZM84.2203 133.323C84.3297 132.922 84.6487 132.721 85.1773 132.721C85.4326 132.721 85.6513 132.822 85.8336 133.022C86.0341 133.204 86.1344 133.405 86.1344 133.624C86.1344 133.824 86.1161 133.988 86.0797 134.116L82.9078 143.44C82.8167 143.695 82.6526 143.914 82.4156 144.096C82.1786 144.279 81.9052 144.37 81.5953 144.37C81.3036 144.37 81.0302 144.279 80.775 144.096C80.538 143.914 80.374 143.686 80.2828 143.413L77.9039 136.003L75.525 143.413C75.4156 143.668 75.2424 143.896 75.0055 144.096C74.7685 144.279 74.4951 144.37 74.1852 144.37C73.8935 144.37 73.6292 144.279 73.3922 144.096C73.1552 143.914 72.9911 143.695 72.9 143.44L69.7281 134.116C69.6917 133.988 69.6734 133.824 69.6734 133.624C69.6734 133.405 69.7646 133.204 69.9469 133.022C70.1474 132.822 70.3753 132.721 70.6305 132.721C71.1591 132.721 71.4781 132.922 71.5875 133.323L74.1852 141.964L76.8102 133.542C76.8831 133.305 77.0198 133.113 77.2203 132.967C77.4208 132.803 77.6487 132.721 77.9039 132.721C78.1591 132.721 78.387 132.794 78.5875 132.94C78.788 133.086 78.9247 133.286 78.9977 133.542L81.5953 141.964L84.2203 133.323ZM93.9984 139.284C94.126 140.286 94.5089 141.089 95.1469 141.69C95.8031 142.273 96.6964 142.565 97.8266 142.565C98.975 142.565 99.9503 142.383 100.752 142.018C101.008 141.891 101.235 141.827 101.436 141.827C101.636 141.809 101.819 141.882 101.983 142.046C102.165 142.21 102.256 142.392 102.256 142.592C102.256 142.993 102.092 143.276 101.764 143.44C101.454 143.604 101.172 143.75 100.916 143.878C100.661 144.005 100.388 144.115 100.096 144.206C99.4216 144.388 98.6378 144.479 97.7445 144.479C95.9034 144.479 94.4724 143.969 93.4516 142.948C92.449 141.909 91.9477 140.441 91.9477 138.546C91.9477 136.905 92.376 135.538 93.2328 134.444C94.199 133.223 95.557 132.612 97.307 132.612C98.9841 132.612 100.306 133.177 101.272 134.307C102.183 135.365 102.639 136.686 102.639 138.272C102.639 138.546 102.539 138.783 102.338 138.983C102.156 139.184 101.919 139.284 101.627 139.284H93.9984ZM97.307 134.335C95.9763 134.335 95.0102 134.927 94.4086 136.112C94.1898 136.531 94.0531 137.033 93.9984 137.616H100.616C100.561 136.559 100.169 135.72 99.4398 135.1C98.8565 134.59 98.1456 134.335 97.307 134.335ZM111.597 134.717C112.654 133.314 113.83 132.612 115.124 132.612H115.234C115.507 132.612 115.735 132.712 115.917 132.913C116.118 133.095 116.218 133.332 116.218 133.624C116.218 133.915 116.118 134.152 115.917 134.335C115.717 134.499 115.471 134.581 115.179 134.581H115.07C114.322 134.581 113.657 134.763 113.073 135.128C112.49 135.492 111.998 135.966 111.597 136.549V143.358C111.597 143.632 111.497 143.868 111.296 144.069C111.096 144.27 110.859 144.37 110.585 144.37C110.312 144.37 110.075 144.27 109.874 144.069C109.674 143.868 109.573 143.632 109.573 143.358V133.76C109.573 133.487 109.665 133.25 109.847 133.049C110.047 132.831 110.293 132.721 110.585 132.721C110.859 132.721 111.096 132.822 111.296 133.022C111.497 133.223 111.597 133.469 111.597 133.76V134.717ZM122.496 133.76C122.496 133.451 122.596 133.204 122.797 133.022C122.997 132.822 123.243 132.721 123.535 132.721C123.827 132.721 124.064 132.822 124.246 133.022C124.428 133.204 124.52 133.451 124.52 133.76V143.358C124.52 143.632 124.428 143.868 124.246 144.069C124.064 144.27 123.827 144.37 123.535 144.37C123.243 144.37 122.997 144.27 122.797 144.069C122.596 143.868 122.496 143.632 122.496 143.358V133.76ZM124.738 129.358C124.738 129.686 124.629 129.96 124.41 130.178C124.191 130.397 123.918 130.507 123.59 130.507H123.453C123.125 130.507 122.852 130.397 122.633 130.178C122.432 129.96 122.332 129.686 122.332 129.358V129.276C122.332 128.948 122.441 128.674 122.66 128.456C122.879 128.237 123.143 128.128 123.453 128.128H123.59C123.918 128.128 124.191 128.237 124.41 128.456C124.629 128.674 124.738 128.948 124.738 129.276V129.358ZM138.071 134.499C136.759 134.499 135.528 135.219 134.38 136.659V143.358C134.38 143.632 134.279 143.868 134.079 144.069C133.878 144.27 133.641 144.37 133.368 144.37C133.095 144.37 132.858 144.27 132.657 144.069C132.457 143.868 132.356 143.632 132.356 143.358V133.76C132.356 133.469 132.447 133.223 132.63 133.022C132.83 132.822 133.076 132.721 133.368 132.721C133.641 132.721 133.878 132.822 134.079 133.022C134.279 133.204 134.38 133.451 134.38 133.76V134.69C134.981 134.07 135.501 133.624 135.938 133.35C136.777 132.858 137.579 132.612 138.345 132.612C139.128 132.612 139.766 132.73 140.259 132.967C140.751 133.186 141.17 133.505 141.516 133.924C142.209 134.745 142.555 135.766 142.555 136.987V143.358C142.555 143.632 142.455 143.868 142.255 144.069C142.054 144.27 141.817 144.37 141.544 144.37C141.27 144.37 141.033 144.27 140.833 144.069C140.632 143.868 140.532 143.632 140.532 143.358V137.206C140.532 136.367 140.341 135.711 139.958 135.237C139.575 134.745 138.946 134.499 138.071 134.499ZM158.732 134.307V133.76C158.732 133.487 158.823 133.25 159.005 133.049C159.206 132.831 159.443 132.721 159.716 132.721C159.99 132.721 160.227 132.822 160.427 133.022C160.646 133.223 160.755 133.469 160.755 133.76V143.768C160.755 145.664 160.3 147.113 159.388 148.116C158.477 149.137 157.183 149.647 155.505 149.647C153.719 149.647 152.115 149.255 150.693 148.471C150.438 148.307 150.31 148.079 150.31 147.788C150.31 147.496 150.392 147.25 150.556 147.049C150.739 146.867 150.921 146.776 151.103 146.776C151.285 146.776 151.449 146.803 151.595 146.858C152.726 147.423 153.956 147.706 155.287 147.706C157.584 147.706 158.732 146.493 158.732 144.069V142.565C157.675 143.695 156.399 144.26 154.904 144.26C153.482 144.26 152.261 143.777 151.24 142.811C150.055 141.717 149.463 140.259 149.463 138.436C149.463 136.595 150.055 135.128 151.24 134.034C152.261 133.068 153.5 132.594 154.959 132.612C156.417 132.612 157.675 133.177 158.732 134.307ZM158.732 136.112C158.313 135.674 157.83 135.292 157.283 134.964C156.754 134.635 156.162 134.471 155.505 134.471C154.849 134.471 154.284 134.553 153.81 134.717C153.354 134.882 152.953 135.128 152.607 135.456C151.878 136.148 151.513 137.142 151.513 138.436C151.513 140.368 152.279 141.608 153.81 142.155C154.284 142.319 154.849 142.401 155.505 142.401C156.599 142.401 157.675 141.845 158.732 140.733V136.112ZM179.081 133.76C179.081 133.451 179.182 133.204 179.382 133.022C179.583 132.822 179.829 132.721 180.12 132.721C180.412 132.721 180.649 132.822 180.831 133.022C181.014 133.204 181.105 133.451 181.105 133.76V143.358C181.105 143.632 181.014 143.868 180.831 144.069C180.649 144.27 180.412 144.37 180.12 144.37C179.829 144.37 179.583 144.27 179.382 144.069C179.182 143.868 179.081 143.632 179.081 143.358V133.76ZM181.323 129.358C181.323 129.686 181.214 129.96 180.995 130.178C180.777 130.397 180.503 130.507 180.175 130.507H180.038C179.71 130.507 179.437 130.397 179.218 130.178C179.017 129.96 178.917 129.686 178.917 129.358V129.276C178.917 128.948 179.027 128.674 179.245 128.456C179.464 128.237 179.728 128.128 180.038 128.128H180.175C180.503 128.128 180.777 128.237 180.995 128.456C181.214 128.674 181.323 128.948 181.323 129.276V129.358ZM194.656 134.499C193.344 134.499 192.113 135.219 190.965 136.659V143.358C190.965 143.632 190.865 143.868 190.664 144.069C190.464 144.27 190.227 144.37 189.953 144.37C189.68 144.37 189.443 144.27 189.242 144.069C189.042 143.868 188.941 143.632 188.941 143.358V133.76C188.941 133.469 189.033 133.223 189.215 133.022C189.415 132.822 189.661 132.721 189.953 132.721C190.227 132.721 190.464 132.822 190.664 133.022C190.865 133.204 190.965 133.451 190.965 133.76V134.69C191.566 134.07 192.086 133.624 192.523 133.35C193.362 132.858 194.164 132.612 194.93 132.612C195.714 132.612 196.352 132.73 196.844 132.967C197.336 133.186 197.755 133.505 198.102 133.924C198.794 134.745 199.141 135.766 199.141 136.987V143.358C199.141 143.632 199.04 143.868 198.84 144.069C198.639 144.27 198.402 144.37 198.129 144.37C197.855 144.37 197.618 144.27 197.418 144.069C197.217 143.868 197.117 143.632 197.117 143.358V137.206C197.117 136.367 196.926 135.711 196.543 135.237C196.16 134.745 195.531 134.499 194.656 134.499ZM215.317 134.307V133.76C215.317 133.487 215.408 133.25 215.591 133.049C215.791 132.831 216.028 132.721 216.302 132.721C216.575 132.721 216.812 132.822 217.012 133.022C217.231 133.223 217.341 133.469 217.341 133.76V143.768C217.341 145.664 216.885 147.113 215.973 148.116C215.062 149.137 213.768 149.647 212.091 149.647C210.304 149.647 208.7 149.255 207.278 148.471C207.023 148.307 206.895 148.079 206.895 147.788C206.895 147.496 206.977 147.25 207.141 147.049C207.324 146.867 207.506 146.776 207.688 146.776C207.871 146.776 208.035 146.803 208.18 146.858C209.311 147.423 210.541 147.706 211.872 147.706C214.169 147.706 215.317 146.493 215.317 144.069V142.565C214.26 143.695 212.984 144.26 211.489 144.26C210.067 144.26 208.846 143.777 207.825 142.811C206.64 141.717 206.048 140.259 206.048 138.436C206.048 136.595 206.64 135.128 207.825 134.034C208.846 133.068 210.085 132.594 211.544 132.612C213.002 132.612 214.26 133.177 215.317 134.307ZM215.317 136.112C214.898 135.674 214.415 135.292 213.868 134.964C213.339 134.635 212.747 134.471 212.091 134.471C211.434 134.471 210.869 134.553 210.395 134.717C209.94 134.882 209.539 135.128 209.192 135.456C208.463 136.148 208.098 137.142 208.098 138.436C208.098 140.368 208.864 141.608 210.395 142.155C210.869 142.319 211.434 142.401 212.091 142.401C213.184 142.401 214.26 141.845 215.317 140.733V136.112ZM226.435 139.284C226.563 140.286 226.946 141.089 227.584 141.69C228.24 142.273 229.133 142.565 230.263 142.565C231.412 142.565 232.387 142.383 233.189 142.018C233.444 141.891 233.672 141.827 233.873 141.827C234.073 141.809 234.255 141.882 234.42 142.046C234.602 142.21 234.693 142.392 234.693 142.592C234.693 142.993 234.529 143.276 234.201 143.44C233.891 143.604 233.608 143.75 233.353 143.878C233.098 144.005 232.824 144.115 232.533 144.206C231.858 144.388 231.074 144.479 230.181 144.479C228.34 144.479 226.909 143.969 225.888 142.948C224.886 141.909 224.384 140.441 224.384 138.546C224.384 136.905 224.813 135.538 225.67 134.444C226.636 133.223 227.994 132.612 229.744 132.612C231.421 132.612 232.742 133.177 233.709 134.307C234.62 135.365 235.076 136.686 235.076 138.272C235.076 138.546 234.976 138.783 234.775 138.983C234.593 139.184 234.356 139.284 234.064 139.284H226.435ZM229.744 134.335C228.413 134.335 227.447 134.927 226.845 136.112C226.627 136.531 226.49 137.033 226.435 137.616H233.052C232.998 136.559 232.606 135.72 231.877 135.1C231.293 134.59 230.582 134.335 229.744 134.335ZM247.725 134.499C246.412 134.499 245.182 135.219 244.034 136.659V143.358C244.034 143.632 243.933 143.868 243.733 144.069C243.532 144.27 243.295 144.37 243.022 144.37C242.748 144.37 242.511 144.27 242.311 144.069C242.11 143.868 242.01 143.632 242.01 143.358V133.76C242.01 133.469 242.101 133.223 242.284 133.022C242.484 132.822 242.73 132.721 243.022 132.721C243.295 132.721 243.532 132.822 243.733 133.022C243.933 133.204 244.034 133.451 244.034 133.76V134.69C244.635 134.07 245.155 133.624 245.592 133.35C246.431 132.858 247.233 132.612 247.998 132.612C248.782 132.612 249.42 132.73 249.912 132.967C250.405 133.186 250.824 133.505 251.17 133.924C251.863 134.745 252.209 135.766 252.209 136.987V143.358C252.209 143.632 252.109 143.868 251.909 144.069C251.708 144.27 251.471 144.37 251.198 144.37C250.924 144.37 250.687 144.27 250.487 144.069C250.286 143.868 250.186 143.632 250.186 143.358V137.206C250.186 136.367 249.995 135.711 249.612 135.237C249.229 134.745 248.6 134.499 247.725 134.499ZM264.23 142.592C265.542 142.592 266.773 141.882 267.921 140.46V133.733C267.921 133.46 268.012 133.223 268.195 133.022C268.395 132.822 268.641 132.721 268.933 132.721C269.206 132.721 269.443 132.822 269.644 133.022C269.844 133.204 269.945 133.441 269.945 133.733V143.331C269.945 143.622 269.844 143.868 269.644 144.069C269.461 144.27 269.224 144.37 268.933 144.37C268.659 144.37 268.422 144.27 268.222 144.069C268.021 143.868 267.921 143.622 267.921 143.331V142.428C267.32 143.048 266.8 143.486 266.363 143.741C265.524 144.233 264.713 144.479 263.929 144.479C263.163 144.479 262.525 144.361 262.015 144.124C261.523 143.887 261.113 143.577 260.784 143.194C260.092 142.374 259.745 141.344 259.745 140.104V133.733C259.745 133.46 259.836 133.223 260.019 133.022C260.219 132.822 260.465 132.721 260.757 132.721C261.03 132.721 261.267 132.822 261.468 133.022C261.668 133.204 261.769 133.441 261.769 133.733V139.858C261.769 140.697 261.96 141.362 262.343 141.854C262.726 142.346 263.355 142.592 264.23 142.592ZM277.754 133.76C277.754 133.451 277.854 133.204 278.055 133.022C278.255 132.822 278.501 132.721 278.793 132.721C279.085 132.721 279.322 132.822 279.504 133.022C279.686 133.204 279.777 133.451 279.777 133.76V143.358C279.777 143.632 279.686 143.868 279.504 144.069C279.322 144.27 279.085 144.37 278.793 144.37C278.501 144.37 278.255 144.27 278.055 144.069C277.854 143.868 277.754 143.632 277.754 143.358V133.76ZM279.996 129.358C279.996 129.686 279.887 129.96 279.668 130.178C279.449 130.397 279.176 130.507 278.848 130.507H278.711C278.383 130.507 278.109 130.397 277.891 130.178C277.69 129.96 277.59 129.686 277.59 129.358V129.276C277.59 128.948 277.699 128.674 277.918 128.456C278.137 128.237 278.401 128.128 278.711 128.128H278.848C279.176 128.128 279.449 128.237 279.668 128.456C279.887 128.674 279.996 128.948 279.996 129.276V129.358ZM291.77 142.674C292.171 142.674 292.454 142.647 292.618 142.592C292.8 142.52 292.992 142.483 293.192 142.483C293.393 142.483 293.575 142.565 293.739 142.729C293.903 142.875 293.985 143.103 293.985 143.413C293.985 143.704 293.839 143.914 293.548 144.042C292.91 144.333 292.363 144.479 291.907 144.479C291.451 144.479 291.032 144.452 290.649 144.397C290.285 144.361 289.929 144.242 289.583 144.042C288.762 143.568 288.352 142.729 288.352 141.526V134.581H286.766C286.493 134.581 286.347 134.435 286.329 134.143C286.329 134.016 286.402 133.897 286.548 133.788L289.583 130.807C289.71 130.68 289.838 130.616 289.966 130.616C290.093 130.598 290.193 130.634 290.266 130.725C290.339 130.816 290.376 130.926 290.376 131.053V132.831H292.919C293.174 132.831 293.384 132.913 293.548 133.077C293.712 133.241 293.794 133.451 293.794 133.706C293.794 133.961 293.712 134.171 293.548 134.335C293.384 134.499 293.174 134.581 292.919 134.581H290.376V141.362C290.376 141.927 290.549 142.31 290.895 142.51C291.078 142.62 291.369 142.674 291.77 142.674ZM309.013 132.721C309.305 132.721 309.542 132.822 309.724 133.022C309.925 133.223 310.025 133.432 310.025 133.651C310.025 133.87 309.998 134.034 309.943 134.143L303.845 148.827C303.663 149.301 303.353 149.538 302.916 149.538C302.66 149.538 302.433 149.437 302.232 149.237C302.05 149.036 301.959 148.836 301.959 148.635C301.959 148.453 301.977 148.298 302.013 148.171L303.462 144.424L299.252 134.171C299.197 134.025 299.17 133.852 299.17 133.651C299.17 133.432 299.261 133.223 299.443 133.022C299.643 132.822 299.862 132.721 300.099 132.721C300.591 132.721 300.929 132.931 301.111 133.35L304.556 141.909L308.084 133.378C308.266 132.922 308.576 132.703 309.013 132.721Z"
     fill="#7B7B7B"
     id="path36" />
</svg>
